<svg xmlns="http://www.w3.org/2000/svg" version="1.1" xmlns:xlink="http://www.w3.org/1999/xlink" width="512" height="512" x="0" y="0" viewBox="0 0 24 24" style="enable-background:new 0 0 512 512" xml:space="preserve" class=""><g><path fill="#ffffff" fill-rule="evenodd" d="M13.437 4.273c-.673-1.03-2.201-1.03-2.874 0l-3.4 5.2L4.565 8c-1.302-.738-2.867.418-2.515 1.856l1.766 7.201a.73.73 0 0 0 .712.553h14.944a.73.73 0 0 0 .712-.553l1.765-7.2c.353-1.44-1.212-2.595-2.514-1.857l-2.598 1.472-3.4-5.2Zm-1.232.782a.246.246 0 0 0-.41 0l-3.777 5.777a.74.74 0 0 1-.981.235L3.834 9.253c-.186-.105-.41.06-.359.265l1.63 6.649h13.79l1.63-6.649c.05-.205-.173-.37-.36-.265l-3.202 1.814a.74.74 0 0 1-.98-.235l-3.778-5.777Z" clip-rule="evenodd" opacity="1" data-original="#000000"></path><path fill="#ffffff" d="M5.16 19.055a.728.728 0 0 0-.733.723c0 .399.329.722.733.722h13.68a.728.728 0 0 0 .733-.722.728.728 0 0 0-.733-.723H5.16Z" opacity="1" data-original="#000000"></path></g></svg>