<svg xmlns="http://www.w3.org/2000/svg" version="1.1" xmlns:xlink="http://www.w3.org/1999/xlink" width="512" height="512" x="0" y="0" viewBox="0 0 512 512" style="enable-background:new 0 0 512 512" xml:space="preserve" class=""><g><path d="M504 272a32 32 0 0 0-63.71-4.25C378.95 313.03 316.97 336 256 336s-122.95-22.97-184.29-68.25a32 32 0 1 0-55.33 25.82A7.776 7.776 0 0 0 16 296v176a8 8 0 0 0 8 8h32a8 8 0 0 0 8-8V296a7.776 7.776 0 0 0-.38-2.43 32.316 32.316 0 0 0 5.37-8.03C130.94 329.64 193.81 352 256 352s125.06-22.36 187.01-66.46a32.316 32.316 0 0 0 5.37 8.03A7.776 7.776 0 0 0 448 296v176a8 8 0 0 0 8 8h32a8 8 0 0 0 8-8V296a7.776 7.776 0 0 0-.38-2.43A31.912 31.912 0 0 0 504 272ZM48 464H32V304h16Zm-8-176a16 16 0 1 1 16-16 16.021 16.021 0 0 1-16 16Zm440 176h-16V304h16Zm-8-176a16 16 0 1 1 16-16 16.021 16.021 0 0 1-16 16ZM192 128a32 32 0 1 0-32-32 32.036 32.036 0 0 0 32 32Zm0-48a16 16 0 1 1-16 16 16.019 16.019 0 0 1 16-16Z" fill="#ffffff" opacity="1" data-original="#000000" class=""></path><path d="M384 32H128a8 8 0 0 0-8 8v208a8 8 0 0 0 8 8h256a8 8 0 0 0 8-8V40a8 8 0 0 0-8-8ZM136 240l56-74.67L248 240Zm240 0H268l-26-34.67 78-104L376 176Zm0-90.67L326.4 83.2a8 8 0 0 0-12.8 0L232 192l-33.6-44.8a8 8 0 0 0-12.8 0L136 213.33V48h240Z" fill="#ffffff" opacity="1" data-original="#000000" class=""></path></g></svg>