<svg xmlns="http://www.w3.org/2000/svg" version="1.1" xmlns:xlink="http://www.w3.org/1999/xlink" width="512" height="512" x="0" y="0" viewBox="0 0 512 512" style="enable-background:new 0 0 512 512" xml:space="preserve" class=""><g><path d="M456.563 220.826a7.57 7.57 0 0 0 7.57-7.571V48.636C464.133 21.82 442.317.003 415.5.003L101.758 0C72.043 0 47.867 24.175 47.867 53.891v437.228c0 11.513 9.367 20.881 20.882 20.881h291.873c11.513 0 20.881-9.366 20.881-20.881V354.864h63.782c10.394 0 18.85-8.456 18.85-18.849v-92.478a7.57 7.57 0 0 0-7.57-7.571 7.57 7.57 0 0 0-7.571 7.571v92.478a3.713 3.713 0 0 1-3.709 3.708h-63.782l-.041-291.086c0-16.141 11.48-29.652 26.703-32.8 21.573-4.447 40.829 11.828 40.829 32.8v164.619a7.568 7.568 0 0 0 7.569 7.57zM370.11 29.816c-5.526 13.12-3.774 6.749-3.791 317.477l.041 143.826a5.747 5.747 0 0 1-5.74 5.74H68.748a5.746 5.746 0 0 1-5.74-5.74V53.891c0-21.367 17.383-38.75 38.75-38.75h277.948a49.433 49.433 0 0 0-9.596 14.675z" fill="#ffffff" opacity="1" data-original="#000000" class=""></path><path d="M123.308 62.683c-14.208 0-25.768 11.559-25.768 25.767s11.56 25.767 25.768 25.767 25.767-11.559 25.767-25.767-11.559-25.767-25.767-25.767zm0 36.393c-5.859 0-10.626-4.767-10.626-10.626s4.766-10.626 10.626-10.626 10.626 4.767 10.626 10.626-4.768 10.626-10.626 10.626zM196.981 80.88h-14.542a7.57 7.57 0 0 0-7.571 7.571 7.57 7.57 0 0 0 7.571 7.571h14.542a7.57 7.57 0 0 0 7.571-7.571 7.57 7.57 0 0 0-7.571-7.571zM330.223 80.88h-102.96a7.57 7.57 0 0 0-7.571 7.571 7.57 7.57 0 0 0 7.57 7.571h102.959a7.57 7.57 0 0 0 7.571-7.571 7.567 7.567 0 0 0-7.569-7.571zM123.308 147.001c-14.208 0-25.767 11.559-25.767 25.767s11.559 25.767 25.767 25.767 25.767-11.559 25.767-25.767-11.559-25.767-25.767-25.767zm0 36.394c-5.86 0-10.626-4.767-10.626-10.626s4.767-10.626 10.626-10.626 10.626 4.767 10.626 10.626-4.768 10.626-10.626 10.626zM330.223 165.197H182.439a7.57 7.57 0 0 0-7.571 7.57 7.57 7.57 0 0 0 7.571 7.571h147.784a7.57 7.57 0 1 0 0-15.141zM123.308 231.318c-14.208 0-25.767 11.559-25.767 25.767s11.559 25.767 25.767 25.767 25.767-11.559 25.767-25.767-11.559-25.767-25.767-25.767zm0 36.395c-5.86 0-10.626-4.767-10.626-10.626 0-5.859 4.767-10.626 10.626-10.626s10.626 4.767 10.626 10.626-4.768 10.626-10.626 10.626zM330.223 249.515H315.68a7.57 7.57 0 0 0-7.571 7.571 7.57 7.57 0 0 0 7.571 7.57h14.543a7.57 7.57 0 1 0 0-15.141zM285.398 249.515H182.439a7.57 7.57 0 0 0-7.571 7.571 7.57 7.57 0 0 0 7.571 7.57h102.959a7.57 7.57 0 0 0 7.57-7.57 7.57 7.57 0 0 0-7.57-7.571zM123.308 314.42c-14.208 0-25.767 11.559-25.767 25.767s11.559 25.767 25.767 25.767 25.767-11.559 25.767-25.767-11.559-25.767-25.767-25.767zm0 36.394c-5.86 0-10.626-4.767-10.626-10.626s4.767-10.626 10.626-10.626 10.626 4.767 10.626 10.626-4.768 10.626-10.626 10.626zM330.223 332.617H182.439c-4.182 0-7.571 3.389-7.571 7.571s3.389 7.571 7.571 7.571h147.784c4.182 0 7.571-3.389 7.571-7.571s-3.389-7.571-7.571-7.571zM123.308 398.738c-14.208 0-25.767 11.559-25.767 25.767s11.559 25.767 25.767 25.767 25.767-11.559 25.767-25.767c0-14.209-11.559-25.767-25.767-25.767zm0 36.394c-5.86 0-10.626-4.767-10.626-10.626 0-5.859 4.767-10.626 10.626-10.626s10.626 4.767 10.626 10.626c0 5.858-4.768 10.626-10.626 10.626zM330.223 416.935H182.439a7.57 7.57 0 0 0-7.571 7.571 7.57 7.57 0 0 0 7.571 7.571h147.784a7.57 7.57 0 1 0 0-15.142z" fill="#ffffff" opacity="1" data-original="#000000" class=""></path></g></svg>