<svg xmlns="http://www.w3.org/2000/svg" version="1.1" xmlns:xlink="http://www.w3.org/1999/xlink" width="512" height="512" x="0" y="0" viewBox="0 0 64 64" style="enable-background:new 0 0 512 512" xml:space="preserve" class=""><g><path d="M11.242 25.408a1.308 1.308 0 0 1-1.23.972H8.455a1 1 0 0 0-.981.808 24.726 24.726 0 0 0 0 9.623 1 1 0 0 0 .981.81h1.559a1.308 1.308 0 0 1 1.23.97 21.745 21.745 0 0 0 1.42 3.42 1.327 1.327 0 0 1-.183 1.56l-1.108 1.109a1 1 0 0 0-.122 1.265 24.987 24.987 0 0 0 6.805 6.805.996.996 0 0 0 1.265-.122l1.109-1.108a1.324 1.324 0 0 1 1.56-.183 21.745 21.745 0 0 0 3.42 1.42 1.308 1.308 0 0 1 .97 1.23v1.559a1 1 0 0 0 .81.981 24.726 24.726 0 0 0 9.622 0 1 1 0 0 0 .81-.981v-1.559a1.308 1.308 0 0 1 .97-1.23 21.745 21.745 0 0 0 3.42-1.42 1.324 1.324 0 0 1 1.56.183l1.109 1.108a.999.999 0 0 0 1.265.122 24.987 24.987 0 0 0 6.805-6.805 1 1 0 0 0-.122-1.265L51.52 43.57a1.326 1.326 0 0 1-.183-1.56 21.773 21.773 0 0 0 1.42-3.42 1.308 1.308 0 0 1 1.23-.97h1.559a1 1 0 0 0 .981-.81 24.726 24.726 0 0 0 0-9.622 1 1 0 0 0-.981-.81h-1.559a1.308 1.308 0 0 1-1.23-.97 21.745 21.745 0 0 0-1.42-3.42 1.326 1.326 0 0 1 .183-1.56l1.108-1.109a1 1 0 0 0 .122-1.265 24.987 24.987 0 0 0-6.805-6.805 1.002 1.002 0 0 0-1.265.122L43.57 12.48a1.325 1.325 0 0 1-1.56.183 21.745 21.745 0 0 0-3.42-1.42 1.308 1.308 0 0 1-.97-1.23V8.454a1 1 0 0 0-.81-.981 24.852 24.852 0 0 0-9.622 0 1 1 0 0 0-.81.981v1.559a1.308 1.308 0 0 1-.97 1.23 21.745 21.745 0 0 0-3.42 1.42 1.326 1.326 0 0 1-1.56-.183l-1.109-1.108a.998.998 0 0 0-1.265-.122 24.987 24.987 0 0 0-6.805 6.805 1 1 0 0 0 .122 1.265l1.108 1.109a1.327 1.327 0 0 1 .183 1.56 21.773 21.773 0 0 0-1.42 3.42Zm1.906.607a19.655 19.655 0 0 1 1.29-3.105 3.319 3.319 0 0 0-.544-3.895l-.515-.516a22.986 22.986 0 0 1 5.12-5.12l.516.516a3.319 3.319 0 0 0 3.895.544 19.655 19.655 0 0 1 3.105-1.29 3.314 3.314 0 0 0 2.365-3.136v-.721a22.625 22.625 0 0 1 7.24 0v.72a3.314 3.314 0 0 0 2.365 3.136 19.655 19.655 0 0 1 3.105 1.29 3.319 3.319 0 0 0 3.895-.544l.516-.515a22.986 22.986 0 0 1 5.12 5.12l-.516.516a3.316 3.316 0 0 0-.543 3.895 19.628 19.628 0 0 1 1.29 3.106 3.317 3.317 0 0 0 3.135 2.364h.721a22.587 22.587 0 0 1 0 7.24h-.72a3.317 3.317 0 0 0-3.136 2.365 19.655 19.655 0 0 1-1.29 3.105 3.316 3.316 0 0 0 .544 3.895l.515.516a22.986 22.986 0 0 1-5.12 5.12l-.516-.516a3.316 3.316 0 0 0-3.895-.543 19.655 19.655 0 0 1-3.105 1.29 3.314 3.314 0 0 0-2.365 3.135v.721a22.625 22.625 0 0 1-7.24 0v-.72a3.314 3.314 0 0 0-2.365-3.136 19.655 19.655 0 0 1-3.105-1.29 3.316 3.316 0 0 0-3.895.544l-.516.515a22.986 22.986 0 0 1-5.12-5.12l.516-.516a3.319 3.319 0 0 0 .544-3.895 19.628 19.628 0 0 1-1.29-3.106 3.317 3.317 0 0 0-3.136-2.364h-.721a22.587 22.587 0 0 1 0-7.24h.72a3.317 3.317 0 0 0 3.136-2.365Z" fill="#ffffff" opacity="1" data-original="#000000" class=""></path><path d="M32 49a17 17 0 1 0-17-17 17.019 17.019 0 0 0 17 17Zm-7-17a1 1 0 0 1 1 1v6h-6v-6a1 1 0 0 1 1-1Zm-3.5-3.5A1.5 1.5 0 1 1 23 30a1.502 1.502 0 0 1-1.5-1.5ZM32 47a14.97 14.97 0 0 1-11.972-6H26v1a1 1 0 0 0 1 1h10a1 1 0 0 0 1-1v-1h5.972A14.97 14.97 0 0 1 32 47Zm2-15a2.003 2.003 0 0 1 2 2v7h-8v-7a2.003 2.003 0 0 1 2-2Zm-4-4a2 2 0 1 1 2 2 2.003 2.003 0 0 1-2-2Zm14 11h-6v-6a1 1 0 0 1 1-1h4a1 1 0 0 1 1 1Zm-4.5-10.5A1.5 1.5 0 1 1 41 30a1.502 1.502 0 0 1-1.5-1.5ZM18 33v4.34a15 15 0 1 1 28 0V33a2.997 2.997 0 0 0-1.958-2.803A3.456 3.456 0 0 0 44.5 28.5a3.5 3.5 0 0 0-7 0 3.456 3.456 0 0 0 .458 1.697 2.992 2.992 0 0 0-1.243.883 3.986 3.986 0 0 0-1.402-.84 4 4 0 1 0-6.626 0 3.986 3.986 0 0 0-1.402.84 2.991 2.991 0 0 0-1.243-.883A3.456 3.456 0 0 0 26.5 28.5a3.5 3.5 0 0 0-7 0 3.456 3.456 0 0 0 .458 1.697A2.997 2.997 0 0 0 18 33Z" fill="#ffffff" opacity="1" data-original="#000000" class=""></path><path d="M32 63a30.82 30.82 0 0 0 21.7-8.862l-1.4-1.428A29 29 0 0 1 3 32a28.724 28.724 0 0 1 2.632-12.064l1.917.959A1 1 0 0 0 8.996 20L9 13.152a1 1 0 0 0-1.54-.842l-6.004 3.848a1 1 0 0 0 .093 1.737L3.84 19.04A30.711 30.711 0 0 0 1 32a31.035 31.035 0 0 0 31 31ZM6.999 14.98l-.002 3.403-2.98-1.49ZM32 1a30.898 30.898 0 0 0-21.076 8.267l1.36 1.466a28.997 28.997 0 0 1 46.083 33.332l-1.92-.96A1 1 0 0 0 55 44l-.004 6.849a1 1 0 0 0 1.54.842l6.004-3.848a1 1 0 0 0-.093-1.737l-2.29-1.145A30.69 30.69 0 0 0 63 32 31.035 31.035 0 0 0 32 1Zm24.997 48.02L57 45.617l2.98 1.49Z" fill="#ffffff" opacity="1" data-original="#000000" class=""></path></g></svg>