<svg xmlns="http://www.w3.org/2000/svg" version="1.1" xmlns:xlink="http://www.w3.org/1999/xlink" width="512" height="512" x="0" y="0" viewBox="0 0 512 512" style="enable-background:new 0 0 512 512" xml:space="preserve" class=""><g><path d="M250.122 101.753H115.277a7 7 0 0 0-7 7v72.176c0 33.787 22.797 63.116 54.982 71.831v78.441l-39.25 21.407a7 7 0 0 0 3.352 13.146h110.676a7 7 0 0 0 3.352-13.146l-39.25-21.407V252.76c32.186-8.715 54.982-38.044 54.982-71.831v-72.176a6.998 6.998 0 0 0-6.999-7zm-7 79.176c0 29.024-20.725 53.998-49.279 59.38a7 7 0 0 0-5.703 6.879v88.169a7.002 7.002 0 0 0 3.648 6.146l18.796 10.251h-55.769l18.796-10.251a7 7 0 0 0 3.648-6.146v-88.169a7 7 0 0 0-5.703-6.879c-28.555-5.382-49.279-30.355-49.279-59.38v-65.176h120.845zm116.109-15.972v-56.204a7 7 0 1 0-14 0v49.204h-8.968v-49.204a7 7 0 1 0-14 0v49.204h-8.968v-49.204a7 7 0 1 0-14 0v49.204h-8.968v-49.204a7 7 0 1 0-14 0v56.204c0 15.138 9.927 28.474 23.897 33.189v150.052c0 9.68 7.875 17.555 17.555 17.555s17.555-7.875 17.555-17.555V198.147c13.97-4.716 23.897-18.051 23.897-33.19zm-31.923 20.779a7 7 0 0 0-5.975 6.924v155.539c0 1.927-1.628 3.555-3.555 3.555s-3.555-1.628-3.555-3.555V192.66a7 7 0 0 0-5.975-6.924c-7.808-1.156-14.148-6.645-16.705-13.779h52.469c-2.556 7.135-8.897 12.623-16.704 13.779zm104.121 155.052c17.747-32.734 27.078-69.497 27.078-107.034 0-60.034-23.378-116.475-65.829-158.925S293.788 9 233.754 9 117.28 32.379 74.829 74.829C32.379 117.279 9 173.72 9 233.754s23.378 116.475 65.829 158.925 98.891 65.829 158.925 65.829c37.537 0 74.3-9.331 107.035-27.079C345.665 471.693 380.027 503 421.586 503 466.478 503 503 466.478 503 421.586c0-41.559-31.307-75.921-71.571-80.798zM23 233.754C23 117.544 117.544 23 233.754 23s210.753 94.543 210.753 210.753c0 37.633-9.997 74.431-28.945 106.665-40.095 2.95-72.193 35.048-75.143 75.143-32.235 18.948-69.032 28.946-106.665 28.946C117.544 444.507 23 349.964 23 233.754zM421.586 489c-37.172 0-67.414-30.242-67.414-67.414s30.242-67.414 67.414-67.414S489 384.414 489 421.586 458.758 489 421.586 489zm40.784-86.907a7 7 0 0 1-1.179 9.829l-49.392 38.808a6.971 6.971 0 0 1-4.32 1.496 6.989 6.989 0 0 1-5.45-2.602l-21.168-26.208a7 7 0 0 1 10.891-8.797l16.829 20.835 43.961-34.541a7 7 0 0 1 9.828 1.18z" fill="#ffffff" opacity="1" data-original="#000000" class=""></path></g></svg>